<mxfile host="Electron" modified="2024-04-06T13:53:13.853Z" agent="Mozilla/5.0 (Windows NT 10.0; Win64; x64) AppleWebKit/537.36 (KHTML, like Gecko) draw.io/21.7.5 Chrome/114.0.5735.289 Electron/25.8.1 Safari/537.36" etag="JCBezDE7uozM_6dtL5py" version="21.7.5" type="device">
  <diagram id="C5RBs43oDa-KdzZeNtuy" name="Page-1">
    <mxGraphModel dx="964" dy="657" grid="1" gridSize="10" guides="1" tooltips="1" connect="1" arrows="1" fold="1" page="1" pageScale="1" pageWidth="827" pageHeight="1169" math="0" shadow="0">
      <root>
        <mxCell id="WIyWlLk6GJQsqaUBKTNV-0" />
        <mxCell id="WIyWlLk6GJQsqaUBKTNV-1" parent="WIyWlLk6GJQsqaUBKTNV-0" />
        <mxCell id="axKwINgf4DavFRMzS4Bh-18" style="rounded=0;orthogonalLoop=1;jettySize=auto;html=1;exitX=0;exitY=0.5;exitDx=0;exitDy=0;entryX=1;entryY=0.5;entryDx=0;entryDy=0;" edge="1" parent="WIyWlLk6GJQsqaUBKTNV-1" source="axKwINgf4DavFRMzS4Bh-0" target="axKwINgf4DavFRMzS4Bh-1">
          <mxGeometry relative="1" as="geometry" />
        </mxCell>
        <mxCell id="axKwINgf4DavFRMzS4Bh-22" value="用户信息" style="edgeLabel;html=1;align=center;verticalAlign=middle;resizable=0;points=[];" vertex="1" connectable="0" parent="axKwINgf4DavFRMzS4Bh-18">
          <mxGeometry x="-0.0274" y="1" relative="1" as="geometry">
            <mxPoint x="1" as="offset" />
          </mxGeometry>
        </mxCell>
        <mxCell id="axKwINgf4DavFRMzS4Bh-0" value="初始化" style="ellipse;whiteSpace=wrap;html=1;aspect=fixed;" vertex="1" parent="WIyWlLk6GJQsqaUBKTNV-1">
          <mxGeometry x="340" y="60" width="80" height="80" as="geometry" />
        </mxCell>
        <mxCell id="axKwINgf4DavFRMzS4Bh-4" style="edgeStyle=orthogonalEdgeStyle;rounded=0;orthogonalLoop=1;jettySize=auto;html=1;exitX=1;exitY=0.5;exitDx=0;exitDy=0;entryX=0;entryY=0.5;entryDx=0;entryDy=0;" edge="1" parent="WIyWlLk6GJQsqaUBKTNV-1" source="axKwINgf4DavFRMzS4Bh-1" target="axKwINgf4DavFRMzS4Bh-3">
          <mxGeometry relative="1" as="geometry" />
        </mxCell>
        <mxCell id="axKwINgf4DavFRMzS4Bh-15" value="选择" style="edgeLabel;html=1;align=center;verticalAlign=middle;resizable=0;points=[];" vertex="1" connectable="0" parent="axKwINgf4DavFRMzS4Bh-4">
          <mxGeometry x="0.2119" y="3" relative="1" as="geometry">
            <mxPoint x="-13" y="3" as="offset" />
          </mxGeometry>
        </mxCell>
        <mxCell id="axKwINgf4DavFRMzS4Bh-7" style="rounded=0;orthogonalLoop=1;jettySize=auto;html=1;exitX=1;exitY=0.5;exitDx=0;exitDy=0;entryX=0;entryY=0.5;entryDx=0;entryDy=0;startArrow=classic;startFill=1;" edge="1" parent="WIyWlLk6GJQsqaUBKTNV-1" source="axKwINgf4DavFRMzS4Bh-1" target="axKwINgf4DavFRMzS4Bh-6">
          <mxGeometry relative="1" as="geometry" />
        </mxCell>
        <mxCell id="axKwINgf4DavFRMzS4Bh-11" value="聊天数据" style="edgeLabel;html=1;align=center;verticalAlign=middle;resizable=0;points=[];" vertex="1" connectable="0" parent="axKwINgf4DavFRMzS4Bh-7">
          <mxGeometry x="-0.0767" relative="1" as="geometry">
            <mxPoint as="offset" />
          </mxGeometry>
        </mxCell>
        <mxCell id="axKwINgf4DavFRMzS4Bh-1" value="服务器" style="rounded=0;whiteSpace=wrap;html=1;" vertex="1" parent="WIyWlLk6GJQsqaUBKTNV-1">
          <mxGeometry x="100" y="210" width="120" height="60" as="geometry" />
        </mxCell>
        <mxCell id="axKwINgf4DavFRMzS4Bh-5" style="edgeStyle=orthogonalEdgeStyle;rounded=0;orthogonalLoop=1;jettySize=auto;html=1;exitX=0;exitY=0.5;exitDx=0;exitDy=0;entryX=1;entryY=0.5;entryDx=0;entryDy=0;" edge="1" parent="WIyWlLk6GJQsqaUBKTNV-1" source="axKwINgf4DavFRMzS4Bh-2" target="axKwINgf4DavFRMzS4Bh-3">
          <mxGeometry relative="1" as="geometry" />
        </mxCell>
        <mxCell id="axKwINgf4DavFRMzS4Bh-14" value="选择" style="edgeLabel;html=1;align=center;verticalAlign=middle;resizable=0;points=[];" vertex="1" connectable="0" parent="axKwINgf4DavFRMzS4Bh-5">
          <mxGeometry x="-0.0619" y="-1" relative="1" as="geometry">
            <mxPoint as="offset" />
          </mxGeometry>
        </mxCell>
        <mxCell id="axKwINgf4DavFRMzS4Bh-8" style="rounded=0;orthogonalLoop=1;jettySize=auto;html=1;exitX=0;exitY=0.5;exitDx=0;exitDy=0;entryX=1;entryY=0.5;entryDx=0;entryDy=0;startArrow=classic;startFill=1;" edge="1" parent="WIyWlLk6GJQsqaUBKTNV-1" source="axKwINgf4DavFRMzS4Bh-2" target="axKwINgf4DavFRMzS4Bh-6">
          <mxGeometry relative="1" as="geometry" />
        </mxCell>
        <mxCell id="axKwINgf4DavFRMzS4Bh-12" value="聊天数据" style="edgeLabel;html=1;align=center;verticalAlign=middle;resizable=0;points=[];" vertex="1" connectable="0" parent="axKwINgf4DavFRMzS4Bh-8">
          <mxGeometry x="-0.0664" y="-2" relative="1" as="geometry">
            <mxPoint as="offset" />
          </mxGeometry>
        </mxCell>
        <mxCell id="axKwINgf4DavFRMzS4Bh-16" style="rounded=0;orthogonalLoop=1;jettySize=auto;html=1;exitX=0;exitY=0.5;exitDx=0;exitDy=0;entryX=1;entryY=0.5;entryDx=0;entryDy=0;" edge="1" parent="WIyWlLk6GJQsqaUBKTNV-1" source="axKwINgf4DavFRMzS4Bh-2" target="axKwINgf4DavFRMzS4Bh-0">
          <mxGeometry relative="1" as="geometry" />
        </mxCell>
        <mxCell id="axKwINgf4DavFRMzS4Bh-17" value="用户信息" style="edgeLabel;html=1;align=center;verticalAlign=middle;resizable=0;points=[];" vertex="1" connectable="0" parent="axKwINgf4DavFRMzS4Bh-16">
          <mxGeometry x="0.0714" relative="1" as="geometry">
            <mxPoint as="offset" />
          </mxGeometry>
        </mxCell>
        <mxCell id="axKwINgf4DavFRMzS4Bh-2" value="客户端" style="rounded=0;whiteSpace=wrap;html=1;" vertex="1" parent="WIyWlLk6GJQsqaUBKTNV-1">
          <mxGeometry x="540" y="210" width="120" height="60" as="geometry" />
        </mxCell>
        <mxCell id="axKwINgf4DavFRMzS4Bh-9" style="edgeStyle=orthogonalEdgeStyle;rounded=0;orthogonalLoop=1;jettySize=auto;html=1;exitX=0.5;exitY=1;exitDx=0;exitDy=0;entryX=0.5;entryY=0;entryDx=0;entryDy=0;" edge="1" parent="WIyWlLk6GJQsqaUBKTNV-1" source="axKwINgf4DavFRMzS4Bh-3" target="axKwINgf4DavFRMzS4Bh-6">
          <mxGeometry relative="1" as="geometry" />
        </mxCell>
        <mxCell id="axKwINgf4DavFRMzS4Bh-10" value="通信操作" style="edgeLabel;html=1;align=center;verticalAlign=middle;resizable=0;points=[];" vertex="1" connectable="0" parent="axKwINgf4DavFRMzS4Bh-9">
          <mxGeometry x="-0.0286" y="2" relative="1" as="geometry">
            <mxPoint as="offset" />
          </mxGeometry>
        </mxCell>
        <mxCell id="axKwINgf4DavFRMzS4Bh-3" value="功能选择" style="ellipse;whiteSpace=wrap;html=1;aspect=fixed;" vertex="1" parent="WIyWlLk6GJQsqaUBKTNV-1">
          <mxGeometry x="340" y="200" width="80" height="80" as="geometry" />
        </mxCell>
        <mxCell id="axKwINgf4DavFRMzS4Bh-20" style="edgeStyle=orthogonalEdgeStyle;rounded=0;orthogonalLoop=1;jettySize=auto;html=1;exitX=0.5;exitY=1;exitDx=0;exitDy=0;entryX=0.5;entryY=0;entryDx=0;entryDy=0;startArrow=classic;startFill=1;" edge="1" parent="WIyWlLk6GJQsqaUBKTNV-1" source="axKwINgf4DavFRMzS4Bh-6" target="axKwINgf4DavFRMzS4Bh-19">
          <mxGeometry relative="1" as="geometry" />
        </mxCell>
        <mxCell id="axKwINgf4DavFRMzS4Bh-21" value="数据" style="edgeLabel;html=1;align=center;verticalAlign=middle;resizable=0;points=[];" vertex="1" connectable="0" parent="axKwINgf4DavFRMzS4Bh-20">
          <mxGeometry x="-0.28" y="1" relative="1" as="geometry">
            <mxPoint x="-1" y="2" as="offset" />
          </mxGeometry>
        </mxCell>
        <mxCell id="axKwINgf4DavFRMzS4Bh-6" value="通信" style="ellipse;whiteSpace=wrap;html=1;aspect=fixed;" vertex="1" parent="WIyWlLk6GJQsqaUBKTNV-1">
          <mxGeometry x="340" y="350" width="80" height="80" as="geometry" />
        </mxCell>
        <mxCell id="axKwINgf4DavFRMzS4Bh-19" value="数据库" style="rounded=0;whiteSpace=wrap;html=1;" vertex="1" parent="WIyWlLk6GJQsqaUBKTNV-1">
          <mxGeometry x="320" y="480" width="120" height="60" as="geometry" />
        </mxCell>
      </root>
    </mxGraphModel>
  </diagram>
</mxfile>
